<mxfile host="app.diagrams.net" modified="2023-11-08T12:50:32.548Z" agent="Mozilla/5.0 (Windows NT 10.0; Win64; x64) AppleWebKit/537.36 (KHTML, like Gecko) Chrome/116.0.0.0 Safari/537.36 OPR/102.0.0.0" version="22.0.8" etag="simQeUdXit6AtFhZqhmk" type="github">
  <diagram name="Страница — 1" id="UN3PO6J6ENUmfjxG8Bfi">
    <mxGraphModel>
      <root>
        <mxCell id="0" />
        <mxCell id="1" parent="0" />
      </root>
    </mxGraphModel>
  </diagram>
</mxfile>
